<svg xmlns="http://www.w3.org/2000/svg" xmlns:xlink="http://www.w3.org/1999/xlink" viewBox="0 0 96.28 117.23"><defs><style>.cls-1,.cls-2{fill:url(#linear-gradient);}.cls-1{clip-rule:evenodd;}.cls-2{fill-rule:evenodd;}.cls-3{clip-path:url(#clip-path);}.cls-4{fill:none;}.cls-5{fill:url(#linear-gradient-3);}.cls-6{fill:url(#linear-gradient-4);}.cls-7{fill:url(#linear-gradient-5);}.cls-8{fill:url(#linear-gradient-6);}.cls-9{fill:url(#linear-gradient-7);}.cls-10{fill:url(#linear-gradient-8);}</style><linearGradient id="linear-gradient" x1="64.35" y1="18.79" x2="26.28" y2="96.44" gradientUnits="userSpaceOnUse"><stop offset="0" stop-color="#3f873f"/><stop offset="0.33" stop-color="#3f8b3d"/><stop offset="0.64" stop-color="#3e9637"/><stop offset="0.93" stop-color="#3da92e"/><stop offset="1" stop-color="#3dae2b"/></linearGradient><clipPath id="clip-path" transform="translate(0.35 8.26)"><path class="cls-1" d="M49.77.68a5.09,5.09,0,0,0-5.09,0L2.55,25A5.06,5.06,0,0,0,0,29.4V78.07a5.1,5.1,0,0,0,2.54,4.41l42.14,24.33a5.09,5.09,0,0,0,5.09,0L91.89,82.48a5.09,5.09,0,0,0,2.55-4.41V29.4A5.06,5.06,0,0,0,91.89,25Z"/></clipPath><linearGradient id="linear-gradient-3" x1="40.8" y1="59.43" x2="147.61" y2="-19.49" gradientUnits="userSpaceOnUse"><stop offset="0.14" stop-color="#3f873f"/><stop offset="0.4" stop-color="#529f44"/><stop offset="0.71" stop-color="#63b649"/><stop offset="0.91" stop-color="#6abf4b"/></linearGradient><linearGradient id="linear-gradient-4" x1="-1.14" y1="0.17" x2="96.28" y2="0.17" gradientUnits="userSpaceOnUse"><stop offset="0.09" stop-color="#6abf4b"/><stop offset="0.29" stop-color="#63b649"/><stop offset="0.6" stop-color="#529f44"/><stop offset="0.86" stop-color="#3f873f"/></linearGradient><linearGradient id="linear-gradient-5" x1="-1.49" y1="53.73" x2="95.93" y2="53.73" xlink:href="#linear-gradient-4"/><linearGradient id="linear-gradient-6" x1="-1.14" y1="89.79" x2="96.28" y2="89.79" xlink:href="#linear-gradient-4"/><linearGradient id="linear-gradient-7" x1="-1.49" y1="94.11" x2="95.93" y2="94.11" xlink:href="#linear-gradient-4"/><linearGradient id="linear-gradient-8" x1="110.12" y1="16.49" x2="50.04" y2="139.05" xlink:href="#linear-gradient"/></defs><g id="图层_2" data-name="图层 2"><g id="Layer_1" data-name="Layer 1"><path class="cls-2" d="M49.77.68a5.09,5.09,0,0,0-5.09,0L2.55,25A5.06,5.06,0,0,0,0,29.4V78.07a5.1,5.1,0,0,0,2.54,4.41l42.14,24.33a5.09,5.09,0,0,0,5.09,0L91.89,82.48a5.09,5.09,0,0,0,2.55-4.41V29.4A5.06,5.06,0,0,0,91.89,25Z" transform="translate(0.35 8.26)"/><g class="cls-3"><path class="cls-4" d="M44.59.68,2.37,25A5.22,5.22,0,0,0-.35,29.4V78.07A4.93,4.93,0,0,0,1,81.31L48.4.16A5.14,5.14,0,0,0,44.59.68Z" transform="translate(0.35 8.26)"/><path class="cls-4" d="M48.63,107.3a4.74,4.74,0,0,0,1.19-.49L92,82.48a5.2,5.2,0,0,0,2.65-4.41V29.4a5,5,0,0,0-1.54-3.53Z" transform="translate(0.35 8.26)"/><path class="cls-5" d="M92,25,49.72.68A4.84,4.84,0,0,0,48.4.16L1,81.31a5.91,5.91,0,0,0,1.42,1.17L44.7,106.81a5.16,5.16,0,0,0,3.93.49L93.11,25.87A5.38,5.38,0,0,0,92,25Z" transform="translate(0.35 8.26)"/><path class="cls-4" d="M94.65,78.07V29.4A5.18,5.18,0,0,0,92,25L49.72.68A5.08,5.08,0,0,0,48.17.11L94.49,79.24A4.59,4.59,0,0,0,94.65,78.07Z" transform="translate(0.35 8.26)"/><path class="cls-4" d="M2.37,25A5.22,5.22,0,0,0-.35,29.4V78.07a5.28,5.28,0,0,0,2.73,4.41L44.7,106.81a5.12,5.12,0,0,0,3.26.63L2.62,24.85Z" transform="translate(0.35 8.26)"/><polygon class="cls-6" points="43.63 0 43.05 0.33 43.82 0.33 43.63 0"/><path class="cls-7" d="M92,82.48a5.32,5.32,0,0,0,2.49-3.24L48.17.11a5.15,5.15,0,0,0-3.58.57l-42,24.17L48,107.44a5,5,0,0,0,1.86-.63Z" transform="translate(0.35 8.26)"/><polygon class="cls-8" points="96.28 89.95 96 89.47 96 90.11 96.28 89.95"/><path class="cls-9" d="M92,82.48,49.82,106.81a5,5,0,0,1-1.86.63L48.8,109,95.65,81.86v-.64l-1.16-2A5.32,5.32,0,0,1,92,82.48Z" transform="translate(0.35 8.26)"/><path class="cls-10" d="M92,82.48,49.82,106.81a5,5,0,0,1-1.86.63L48.8,109,95.65,81.86v-.64l-1.16-2A5.32,5.32,0,0,1,92,82.48Z" transform="translate(0.35 8.26)"/></g></g></g></svg>