<?xml version="1.0" standalone="no"?><!DOCTYPE svg PUBLIC "-//W3C//DTD SVG 1.1//EN" "http://www.w3.org/Graphics/SVG/1.1/DTD/svg11.dtd"><svg t="1615282765230" class="icon" viewBox="0 0 1024 1024" version="1.1" xmlns="http://www.w3.org/2000/svg" p-id="2166" xmlns:xlink="http://www.w3.org/1999/xlink" width="512" height="512"><defs><style type="text/css"></style></defs><path d="M463.232 66.602667c-112.384 0-202.922667 104.661333-202.922667 234.752v196.266666l-1.152-0.128v200.96c0 130.133333 90.538667 234.752 202.922667 234.752h97.578667c112.384 0 202.922667-104.661333 202.922666-234.752v-196.266666a217.6 217.6 0 0 0 1.152 0.128v-200.96c0-130.090667-90.538667-234.752-202.922666-234.752h-97.578667z" fill="#73CDDC" p-id="2167"></path><path d="MNaN NaNmNaN NaNlNaN NaNqNaN NaN NaN NaNlNaN NaNqNaN NaN NaN NaNlNaN NaNqNaN NaN NaN NaNlNaN NaNqNaN NaN NaN NaNZ" fill="#73CDDC" p-id="2168"></path><path d="MNaN NaNmNaN NaNlNaN NaNqNaN NaN NaN NaNlNaN NaNqNaN NaN NaN NaNlNaN NaNqNaN NaN NaN NaNlNaN NaNqNaN NaN NaN NaNZ" fill="#73CDDC" p-id="2169"></path><path d="M407.424 213.162667m-87.637333 0a87.637333 87.637333 0 1 0 175.274666 0 87.637333 87.637333 0 1 0-175.274666 0Z" fill="#FFFFFF" p-id="2170"></path><path d="M618.496 212.565333m-87.637333 0a87.637333 87.637333 0 1 0 175.274666 0 87.637333 87.637333 0 1 0-175.274666 0Z" fill="#FFFFFF" p-id="2171"></path><path d="M321.237333 209.792a38.442667 33.792 90 1 0 67.584 0 38.442667 33.792 90 1 0-67.584 0Z" fill="#030D18" p-id="2172"></path><path d="M515.157333 402.005333l32.554667 5.888a29.397333 17.194667 90 0 1 0.341333 5.888 29.397333 17.194667 90 0 1-17.194666 29.44 29.397333 17.194667 90 0 1-17.194667-29.44 29.397333 17.194667 90 0 1 1.493333-11.776z" fill="#FFFFFF" p-id="2173"></path><path d="M369.237333 223.189333a7.082667 5.888 90 1 0 11.776 0 7.082667 5.888 90 1 0-11.776 0Z" fill="#FFFFFF" p-id="2174"></path><path d="M530.56 215.68a38.442667 33.792 90 1 0 67.584 0 38.442667 33.792 90 1 0-67.584 0Z" fill="#030D18" p-id="2175"></path><path d="M578.474667 226.645333a7.082667 5.888 90 1 0 11.776 0 7.082667 5.888 90 1 0-11.776 0Z" fill="#FFFFFF" p-id="2176"></path><path d="M270.416178 537.949947a30.208 43.776 50.597 1 0-38.350323-46.683464 30.208 43.776 50.597 1 0 38.350323 46.683464Z" fill="#F6D2A1" p-id="2177"></path><path d="M514.304 401.877333l-32.298667 5.76a28.672 17.066667 90 0 0-0.341333 5.717334 28.672 17.066667 90 0 0 17.066667 28.714666 28.672 17.066667 90 0 0 17.066666-28.672 28.672 17.066667 90 0 0-1.493333-11.52z" fill="#FFFFFF" p-id="2178"></path><path d="M753.645554 540.89917a43.776 30.165333 39.403 1 1 38.296156-46.617526 43.776 30.165333 39.403 1 1-38.296156 46.617526Z" fill="#F6D2A1" p-id="2179"></path><path d="MNaN NaNaNaN NaN NaN 1 0 NaN NaN NaN NaN NaN 1 0 NaN NaNZ" fill="#F6D2A1" p-id="2180"></path><path d="MNaN NaNaNaN NaN NaN 1 0 NaN NaN NaN NaN NaN 1 0 NaN NaNZ" fill="#F6D2A1" p-id="2181"></path><path d="M468.906667 352.341333a25.344 25.344 0 0 0-25.344 25.472v4.906667c0 14.122667 11.306667 25.514667 25.344 25.514667h16.469333a41.514667 32.938667 0 0 1 29.738667-10.026667 41.514667 32.938667 0 0 1 29.781333 10.026667h14.250667c14.08 0 25.386667-11.392 25.386666-25.514667V377.856a25.386667 25.386667 0 0 0-25.386666-25.472h-90.24z" fill="#F6D2A1" p-id="2182"></path><path d="M461.141333 344.277333a51.541333 29.013333 0 1 0 103.082667 0 51.541333 29.013333 0 1 0-103.082667 0Z" fill="#030D18" p-id="2183"></path></svg>