<?xml version="1.0" encoding="UTF-8"?>
<svg width="580px" height="200px" viewBox="0 0 580 200" version="1.1" xmlns="http://www.w3.org/2000/svg" xmlns:xlink="http://www.w3.org/1999/xlink">
    <title>Leetcode</title>
    <g id="页面-1" stroke="none" stroke-width="1" fill="none" fill-rule="evenodd">
        <g id="Leetcode">
            <rect id="矩形" stroke="#2B2B2B" stroke-width="20" fill-opacity="0.7" fill="#2B2B2B" x="10" y="10" width="560" height="180" rx="60"></rect>
            <text font-family="JetBrainsMono-Regular, JetBrains Mono" font-size="72" font-weight="normal" fill="#B3B3B3">
                <tspan x="200" y="123">Leetcode</tspan>
            </text>
            <g id="leetcode" transform="translate(42.000000, 34.000000)" fill-rule="nonzero">
                <path d="M78.8262132,97.7838867 C81.7380569,94.852674 86.4515064,94.8603297 89.3539985,97.8009863 C92.2564897,100.741643 92.2489092,105.501733 89.337066,108.432946 L76.407149,121.448872 C64.4782563,133.457452 45.0261863,133.631591 32.8961072,121.853381 C32.8259988,121.785664 27.4247492,116.446522 9.60650502,98.8322874 C-2.24753763,87.1145128 -3.42848556,68.3644159 7.7264852,56.3236483 L28.5248317,33.8727389 C39.5959457,21.921228 60.0039673,20.6149911 72.662226,30.9349487 L91.5520984,46.3360758 C94.7510741,48.9442361 95.2507402,53.6775106 92.668135,56.9081399 C90.0855303,60.1387696 85.3986341,60.64338 82.1996593,58.0352197 L63.3099133,42.6341965 C56.6899027,37.2370693 45.1096107,37.9782781 39.3972643,44.1448817 L18.5986504,66.5960797 C13.1681338,72.4578241 13.7628951,81.9009436 20.0211419,88.0872482 C33.1054438,101.021742 43.1893602,110.989704 43.2010272,111.001009 C49.5073721,117.124401 59.7043566,117.033116 65.8962225,110.799887 L78.8262132,97.7838867 Z" id="combined_shape" fill="#FFA116"></path>
                <path d="M47.4158678,84.7584183 C43.3045071,84.7584183 39.9715904,81.3925219 39.9715904,77.2404785 C39.9715904,73.0884345 43.3045071,69.7225382 47.4158678,69.7225382 L102.317415,69.7225382 C106.428776,69.7225382 109.761692,73.0884345 109.761692,77.2404785 C109.761692,81.3925219 106.428776,84.7584183 102.317415,84.7584183 L47.4158678,84.7584183 Z" id="path_2" fill="#B3B3B3"></path>
                <path d="M57.6977837,2.38184146 C60.5065935,-0.650179035 65.2174381,-0.808595877 68.2197502,2.02800754 C71.2220623,4.86461099 71.3789272,9.62207069 68.5701175,12.6540912 L18.5990265,66.5962915 C13.1683189,72.4575908 13.7630767,81.9006529 20.0209114,88.0872067 L43.0983006,110.900814 C46.0363269,113.805258 46.0866211,118.565083 43.2106359,121.532182 C40.3346508,124.49928 35.6214633,124.550072 32.6834371,121.645629 L9.6059411,98.8319159 C-2.24740842,87.1135837 -3.42835223,68.3635526 7.72711557,56.3235853 L57.6977837,2.38184146 Z" id="stroke_3" fill="#FFFFFF"></path>
            </g>
        </g>
    </g>
</svg>